<svg width="14" height="8" viewBox="0 0 14 8" fill="none" xmlns="http://www.w3.org/2000/svg">
<path fill-rule="evenodd" clip-rule="evenodd" d="M0.292787 0.293031C0.105316 0.480558 0 0.734866 0 1.00003C0 1.26519 0.105316 1.5195 0.292787 1.70703L6.29279 7.70703C6.48031 7.8945 6.73462 7.99982 6.99979 7.99982C7.26495 7.99982 7.51926 7.8945 7.70679 7.70703L13.7068 1.70703C13.8889 1.51843 13.9897 1.26583 13.9875 1.00363C13.9852 0.741433 13.88 0.49062 13.6946 0.305212C13.5092 0.119804 13.2584 0.0146352 12.9962 0.0123568C12.734 0.0100783 12.4814 0.110873 12.2928 0.293031L6.99979 5.58603L1.70679 0.293031C1.51926 0.10556 1.26495 0.000244141 0.999786 0.000244141C0.734622 0.000244141 0.480314 0.10556 0.292787 0.293031Z" fill="#2B2A29"/>
</svg>
