<svg width="10" height="10" viewBox="0 0 10 10" fill="none" xmlns="http://www.w3.org/2000/svg">
<path d="M6.13145 4.99995L9.56582 1.56558C9.87832 1.25308 9.87832 0.746826 9.56582 0.434326C9.25332 0.121826 8.74707 0.121826 8.43457 0.434326L5.0002 3.8687L1.56582 0.434326C1.25332 0.121826 0.74707 0.121826 0.43457 0.434326C0.12207 0.746826 0.12207 1.25308 0.43457 1.56558L3.86895 4.99995L0.43457 8.43433C0.12207 8.74683 0.12207 9.25308 0.43457 9.56558C0.59082 9.72183 0.795508 9.79995 1.0002 9.79995C1.20488 9.79995 1.40957 9.72183 1.56582 9.56558L5.0002 6.1312L8.43457 9.56558C8.59082 9.72183 8.79551 9.79995 9.0002 9.79995C9.20488 9.79995 9.40957 9.72183 9.56582 9.56558C9.87832 9.25308 9.87832 8.74683 9.56582 8.43433L6.13145 4.99995Z" fill="black"/>
</svg>
