<svg width="104" height="105" viewBox="0 0 104 105" fill="none" xmlns="http://www.w3.org/2000/svg">
<path d="M76 48.5C70.4621 48.5 65.0486 50.1422 60.444 53.2189C55.8395 56.2955 52.2506 60.6685 50.1314 65.7849C48.0121 70.9012 47.4576 76.5311 48.538 81.9625C49.6184 87.394 52.2851 92.3831 56.201 96.299C60.1169 100.215 65.106 102.882 70.5375 103.962C75.9689 105.042 81.5988 104.488 86.7151 102.369C91.8315 100.249 96.2045 96.6605 99.2812 92.056C102.358 87.4514 104 82.0379 104 76.5C103.986 69.0783 101.031 61.9645 95.7834 56.7166C90.5355 51.4686 83.4217 48.5141 76 48.5ZM86.6667 73.9933L76 84.66C75.25 85.4091 74.2333 85.8298 73.1733 85.8298C72.1133 85.8298 71.0967 85.4091 70.3467 84.66L65.0133 79.3267C64.6396 78.9475 64.3453 78.4976 64.1478 78.0032C63.9502 77.5088 63.8533 76.98 63.8627 76.4477C63.8722 75.9154 63.9878 75.3903 64.2028 74.9033C64.4178 74.4163 64.7279 73.9771 65.1148 73.6114C65.5018 73.2457 65.9578 72.961 66.4562 72.7739C66.9547 72.5868 67.4854 72.5011 68.0174 72.5217C68.5494 72.5424 69.0719 72.6691 69.5543 72.8943C70.0367 73.1195 70.4693 73.4388 70.8267 73.8333L73.3333 76.34L81.1733 68.5C81.4728 67.9732 81.8881 67.5214 82.3878 67.1786C82.8874 66.8358 83.4585 66.611 84.0577 66.5212C84.657 66.4314 85.2688 66.4789 85.847 66.6602C86.4252 66.8414 86.9547 67.1517 87.3955 67.5675C87.8362 67.9833 88.1768 68.4938 88.3914 69.0605C88.6059 69.6272 88.689 70.2352 88.6342 70.8387C88.5794 71.4421 88.3883 72.0253 88.0751 72.5441C87.762 73.0628 87.3351 73.5037 86.8267 73.8333L86.6667 73.9933ZM48.32 37.7267L5.65333 1.03333C6.6496 0.692511 7.69379 0.512481 8.74667 0.5H89.6533C90.7062 0.512481 91.7504 0.692511 92.7467 1.03333L50.08 37.7267C49.8453 37.9366 49.5415 38.0526 49.2267 38.0526C48.9118 38.0526 48.608 37.9366 48.3733 37.7267H48.32ZM40 76.5C39.9734 76.944 39.9734 77.3893 40 77.8333H9.01333C6.67422 77.8763 4.4132 76.9916 2.72431 75.3727C1.03542 73.7538 0.0559794 71.5322 0 69.1933V9.14C0.0158564 8.36179 0.141542 7.58972 0.373333 6.84667L43.04 43.7533C43.4031 44.0706 43.8181 44.3231 44.2667 44.5C45.6985 45.4722 47.3893 45.9919 49.12 45.9919C50.8507 45.9919 52.5415 45.4722 53.9733 44.5C54.4219 44.3231 54.8369 44.0706 55.2 43.7533L97.8667 6.84667C98.0985 7.58972 98.2241 8.36179 98.24 9.14V48.5533C92.9581 44.2726 86.572 41.5751 79.8207 40.773C73.0694 39.9709 66.229 41.0969 60.0911 44.0208C53.9532 46.9446 48.7687 51.5468 45.1377 57.2947C41.5066 63.0426 39.5774 69.7013 39.5733 76.5H40Z" fill="#88D05E"/>
</svg>
