<svg width="70" height="63" viewBox="0 0 70 63" fill="none" xmlns="http://www.w3.org/2000/svg">
<path d="M68.8166 17.8667L64.8166 46.4667C63.95 52.4667 60.65 55.6334 55.2166 55.6334C54.7833 55.6334 54.35 55.6 53.8833 55.5667C53.9797 54.9157 54.0243 54.2581 54.0166 53.6V24.7C54.1857 23.4932 54.0718 22.2636 53.6838 21.1083C53.2958 19.9531 52.6443 18.904 51.781 18.044C50.9177 17.1839 49.8662 16.5364 48.7095 16.1527C47.5529 15.7691 46.3228 15.6597 45.1166 15.8333H11.8833C11.8833 15.7667 11.9166 15.6667 11.9166 15.6L12.7166 10C12.8213 8.57336 13.2081 7.18168 13.8547 5.90568C14.5012 4.62967 15.3947 3.49473 16.4833 2.56668C17.6772 1.78003 19.0146 1.23672 20.4188 0.967876C21.8231 0.699037 23.2666 0.709957 24.6666 1.00001L59.8666 5.93335C61.2898 6.04738 62.6763 6.44184 63.9463 7.09402C65.2163 7.74619 66.3448 8.64319 67.2666 9.73335C68.0631 10.913 68.6113 12.2424 68.8777 13.6407C69.1442 15.0389 69.1234 16.4767 68.8166 17.8667Z" fill="#80011F"/>
<path d="M0.666688 53.61V24.7167C0.495095 23.5095 0.606814 22.279 0.993005 21.1225C1.3792 19.966 2.02926 18.9153 2.89174 18.0534C3.75423 17.1916 4.80547 16.5423 5.96227 16.157C7.11907 15.7717 8.34967 15.6609 9.55669 15.8334H45.1167C46.3231 15.6627 47.5526 15.7749 48.7082 16.161C49.8638 16.5471 50.9138 17.1965 51.7754 18.058C52.6369 18.9196 53.2863 19.9696 53.6724 21.1252C54.0585 22.2808 54.1707 23.5103 54 24.7167V53.61C54.1718 54.8169 54.0605 56.0472 53.6749 57.2037C53.2894 58.3601 52.6401 59.4111 51.7784 60.2734C50.9167 61.1357 49.8663 61.7858 48.7101 62.1722C47.5539 62.5587 46.3237 62.6709 45.1167 62.5H9.55669C8.34903 62.6728 7.11774 62.5619 5.96037 62.1762C4.80299 61.7906 3.75132 61.1407 2.88869 60.278C2.02606 59.4154 1.37616 58.3637 0.990481 57.2063C0.604803 56.049 0.493945 54.8177 0.666688 53.61Z" fill="#80011F" fill-opacity="0.25"/>
<path d="M35.6667 36.6667H29.8333V30.8333C29.8333 30.1703 29.5699 29.5344 29.1011 29.0656C28.6323 28.5967 27.9964 28.3333 27.3333 28.3333C26.6703 28.3333 26.0344 28.5967 25.5656 29.0656C25.0967 29.5344 24.8333 30.1703 24.8333 30.8333V36.6667H19C18.337 36.6667 17.7011 36.9301 17.2322 37.3989C16.7634 37.8678 16.5 38.5036 16.5 39.1667C16.5 39.8297 16.7634 40.4656 17.2322 40.9344C17.7011 41.4033 18.337 41.6667 19 41.6667H24.8333V47.5C24.8333 48.1631 25.0967 48.7989 25.5656 49.2678C26.0344 49.7366 26.6703 50 27.3333 50C27.9964 50 28.6323 49.7366 29.1011 49.2678C29.5699 48.7989 29.8333 48.1631 29.8333 47.5V41.6667H35.6667C36.3297 41.6667 36.9656 41.4033 37.4344 40.9344C37.9033 40.4656 38.1667 39.8297 38.1667 39.1667C38.1667 38.5036 37.9033 37.8678 37.4344 37.3989C36.9656 36.9301 36.3297 36.6667 35.6667 36.6667Z" fill="#80011F"/>
</svg>
