<svg width="32" height="32" viewBox="0 0 32 32" fill="none" xmlns="http://www.w3.org/2000/svg">
<g clip-path="url(#clip0_4003_510)">
<path d="M27.25 3.75H21.6759L21.0666 1.92263C20.8803 1.36248 20.5223 0.875251 20.0434 0.530123C19.5645 0.184995 18.989 -0.000491329 18.3987 9.77455e-07H13.6013C13.0109 -0.000390891 12.4354 0.185121 11.9564 0.530222C11.4773 0.875322 11.1191 1.36249 10.9326 1.92263L10.3239 3.75H4.75C3.19913 3.75 1.9375 5.01163 1.9375 6.5625V8.4375C1.9375 9.48175 2.87756 9.375 3.88644 9.375H29.125C29.6432 9.375 30.0625 8.95569 30.0625 8.4375V6.5625C30.0625 5.01163 28.8009 3.75 27.25 3.75ZM12.3008 3.75L12.7114 2.51588C12.7737 2.32914 12.8931 2.16674 13.0529 2.05171C13.2126 1.93667 13.4045 1.87485 13.6013 1.875H18.3987C18.8024 1.875 19.1604 2.13225 19.2877 2.51588L19.6987 3.75H12.3008ZM4.04163 11.375L5.53644 29.442C5.66919 30.9004 6.87313 32 8.33706 32H23.663C25.1269 32 26.3309 30.9004 26.4645 29.4338L27.9585 11.375H4.04163ZM11.3125 27.3125C11.3125 28.5483 9.4375 28.5534 9.4375 27.3125V14.1875C9.4375 12.9517 11.3125 12.9466 11.3125 14.1875V27.3125ZM16.9375 27.3125C16.9375 28.5483 15.0625 28.5534 15.0625 27.3125V14.1875C15.0625 12.9517 16.9375 12.9466 16.9375 14.1875V27.3125ZM22.5625 27.3125C22.5625 28.5483 20.6875 28.5534 20.6875 27.3125V14.1875C20.6875 13.6693 21.1068 13.25 21.625 13.25C22.1432 13.25 22.5625 13.6693 22.5625 14.1875V27.3125Z" fill="#2B2A29"/>
</g>
<defs>
<clipPath id="clip0_4003_510">
<rect width="32" height="32" fill="white"/>
</clipPath>
</defs>
</svg>
