<svg width="114" height="128" viewBox="0 0 114 128" fill="none" xmlns="http://www.w3.org/2000/svg">
<path d="M102 15H79.7038L77.2663 7.6905C76.5211 5.44991 75.0891 3.501 73.1735 2.12049C71.2578 0.73998 68.956 -0.00196532 66.5947 3.90982e-06H47.4053C45.0437 -0.00156356 42.7416 0.740482 40.8255 2.12089C38.9094 3.50129 37.4766 5.44997 36.7303 7.6905L34.2955 15H12C5.7965 15 0.75 20.0465 0.75 26.25V33.75C0.75 37.927 4.51025 37.5 8.54575 37.5H109.5C111.573 37.5 113.25 35.8228 113.25 33.75V26.25C113.25 20.0465 108.203 15 102 15ZM42.2033 15L43.8457 10.0635C44.0947 9.31656 44.5725 8.66696 45.2114 8.20683C45.8504 7.7467 46.6179 7.4994 47.4053 7.5H66.5947C68.2097 7.5 69.6417 8.529 70.1507 10.0635L71.795 15H42.2033ZM9.1665 45.5L15.1458 117.768C15.6768 123.602 20.4925 128 26.3483 128H87.652C93.5078 128 98.3235 123.602 98.858 117.735L104.834 45.5H9.1665ZM38.25 109.25C38.25 114.193 30.75 114.214 30.75 109.25V56.75C30.75 51.8068 38.25 51.7865 38.25 56.75V109.25ZM60.75 109.25C60.75 114.193 53.25 114.214 53.25 109.25V56.75C53.25 51.8068 60.75 51.7865 60.75 56.75V109.25ZM83.25 109.25C83.25 114.193 75.75 114.214 75.75 109.25V56.75C75.75 54.6773 77.4272 53 79.5 53C81.5728 53 83.25 54.6773 83.25 56.75V109.25Z" fill="#80011F"/>
</svg>
